<svg width="17" height="17" viewBox="0 0 17 17" fill="none" xmlns="http://www.w3.org/2000/svg">
<g clip-path="url(#clip0_685_18)">
<path d="M13.7041 1.91503C13.3163 1.07062 12.4734 0.525024 11.5568 0.525024H4.51794C3.579 0.525024 2.72887 1.08743 2.35203 1.95787C1.44649 4.04972 0.987305 6.25919 0.987305 8.52495C0.987305 10.7907 1.44649 13.0002 2.35206 15.0921C2.72887 15.9625 3.57906 16.5249 4.518 16.5249H5.20741C5.20825 16.5249 5.20909 16.525 5.20994 16.525C5.21109 16.525 5.21228 16.5249 5.21344 16.5249H10.8308C10.832 16.5249 10.8332 16.525 10.8344 16.525C10.8354 16.525 10.8364 16.5249 10.8374 16.5249H11.5568C12.4734 16.5249 13.3163 15.9793 13.7041 15.1348C14.6167 13.1478 15.1416 10.8656 15.1416 8.52492C15.1416 6.32838 14.6762 4.03163 13.7041 1.91503ZM11.5568 1.46234C12.1084 1.46234 12.6169 1.79984 12.8523 2.31247C12.8666 2.34356 12.8804 2.37475 12.8945 2.40587H11.67C11.6006 2.09275 11.5256 1.77343 11.4454 1.46231L11.5568 1.46234ZM8.51794 1.46234H10.4764C10.5593 1.77287 10.6371 2.09225 10.7091 2.4059H8.51794V1.46234ZM5.57869 1.46234H7.58066V2.4059H5.37184C5.43588 2.09253 5.505 1.77315 5.57869 1.46234ZM3.21218 2.3365C3.44047 1.80928 3.953 1.46234 4.51794 1.46234H4.61619C4.54466 1.77365 4.47772 2.093 4.41575 2.4059H3.18268C3.19256 2.38278 3.20222 2.35959 3.21218 2.3365ZM2.81806 3.33694C3.09903 3.33694 13.0993 3.33694 13.2796 3.33694C13.3948 3.64672 13.4993 3.96556 13.5932 4.2805H2.52118C2.61003 3.96556 2.709 3.64672 2.81806 3.33694ZM11.2012 11.8073H8.51794V5.21156H11.2012C11.4641 7.38791 11.464 9.63117 11.2012 11.8073ZM7.58066 5.21156V11.8073H4.93353C4.69891 9.6307 4.69891 7.3881 4.93353 5.21156H7.58066ZM2.28778 11.8073C1.81624 9.62636 1.81624 7.39241 2.28778 5.21156H3.99078C3.76328 7.39001 3.76328 9.62882 3.99078 11.8073H2.28778ZM4.51797 15.5876C3.953 15.5876 3.44043 15.2469 3.21222 14.7197C3.20222 14.6966 3.19259 14.6734 3.18272 14.6503H4.41578C4.47775 14.9632 4.54469 15.2763 4.61622 15.5876H4.51797ZM7.58066 15.5876H5.57869C5.50494 15.2768 5.43588 14.9637 5.37181 14.6503H7.58063L7.58066 15.5876ZM10.4764 15.5876H8.51798V14.6503H10.7091C10.6371 14.964 10.5593 15.2771 10.4764 15.5876ZM12.8523 14.7437C12.6169 15.2564 12.1084 15.5876 11.5568 15.5876H11.4454C11.5256 15.2765 11.6006 14.9634 11.67 14.6503H12.8945C12.8804 14.6815 12.8665 14.7126 12.8523 14.7437ZM13.2795 13.6819C12.6984 13.6819 3.2499 13.6819 2.81803 13.6819C2.709 13.3721 2.61 13.0906 2.52115 12.7757C2.64625 12.7757 12.7179 12.7757 13.5931 12.7757C13.4993 13.0906 13.3947 13.3721 13.2795 13.6819ZM12.1451 11.8073C12.3991 9.62898 12.399 7.39004 12.1451 5.21156H13.8397C14.338 7.39269 14.338 9.62617 13.8397 11.8073H12.1451Z" fill="#A7B1B9"/>
</g>
<defs>
<clipPath id="clip0_685_18">
<rect width="16" height="16" fill="white" transform="translate(0.0644531 0.525024)"/>
</clipPath>
</defs>
</svg>
