<svg xmlns="http://www.w3.org/2000/svg" width="80" height="80" viewBox="0 0 80 80" fill="none">
<rect x="1" y="1" width="78" height="78" rx="39" stroke="#F3C446" stroke-width="2"/>
<path d="M26.667 33.3333L37.5536 40.9538C38.4351 41.5709 38.8759 41.8795 39.3553 41.999C39.7789 42.1046 40.2218 42.1046 40.6453 41.999C41.1248 41.8795 41.5655 41.5709 42.4471 40.9538L53.3337 33.3333M33.067 50.6666H46.9337C49.1739 50.6666 50.294 50.6666 51.1496 50.2306C51.9023 49.8471 52.5142 49.2352 52.8977 48.4825C53.3337 47.6269 53.3337 46.5068 53.3337 44.2666V35.7333C53.3337 33.493 53.3337 32.3729 52.8977 31.5173C52.5142 30.7646 51.9023 30.1527 51.1496 29.7692C50.294 29.3333 49.1739 29.3333 46.9337 29.3333H33.067C30.8268 29.3333 29.7067 29.3333 28.851 29.7692C28.0984 30.1527 27.4865 30.7646 27.103 31.5173C26.667 32.3729 26.667 33.493 26.667 35.7333V44.2666C26.667 46.5068 26.667 47.6269 27.103 48.4825C27.4865 49.2352 28.0984 49.8471 28.851 50.2306C29.7067 50.6666 30.8268 50.6666 33.067 50.6666Z" stroke="#F3C446" stroke-width="1.5" stroke-linecap="round" stroke-linejoin="round"/>
</svg>